# xmcd CD database file
#
# Track frame offsets:
#	150
#	31970
#	51366
#	80518
#	106409
#	143177
#
# Disc length: 2036 seconds
#
# Revision: 0
# Processed by: cddbd v1.5.2PL0 Copyright (c) Steve Scherf et al.
# Submitted via: CDex 1.75
#
DISCID=4c07f206
DTITLE=Hanslik and Moniz Experiment - FRIENDLY PLANET
DYEAR=2019
DGENRE=New Age
TTITLE0=Friendly Planet
TTITLE1=Channeling Siri
TTITLE2=On Shore Eddie
TTITLE3=We Are Your Friends
TTITLE4=Meadow
TTITLE5=Drifting
EXTD=YEAR: 2019
EXTT0=
EXTT1=
EXTT2=
EXTT3=
EXTT4=
EXTT5=
PLAYORDER=
